<svg width="511" height="500" xmlns="http://www.w3.org/2000/svg" xmlns:svg="http://www.w3.org/2000/svg">
 <g>
  <title>Layer 1</title>
  <g fill-opacity="0" id="surface1">
   <path id="svg_1" fill-rule="nonzero" fill="#121212" d="m254.75,22.90234c-127.59766,0 -231.41797,101.875 -231.41797,227.09766c0,125.22266 103.82031,227.09766 231.41797,227.09766c127.60547,0 231.41797,-101.875 231.41797,-227.09766c0,-125.22266 -103.8125,-227.09766 -231.41797,-227.09766m0,477.09766c-140.46484,0 -254.75,-112.15234 -254.75,-250c0,-137.84766 114.28516,-250 254.75,-250c140.47266,0 254.75781,112.15234 254.75781,250c0,137.84766 -114.28515,250 -254.75781,250"/>
   <path id="svg_2" fill-rule="nonzero" fill="#121212" d="m253.40234,397.26172c-82.77734,0 -150.125,-66.0625 -150.125,-147.26172c0,-81.19922 67.34766,-147.26172 150.125,-147.26172c37.33594,0 73.14063,13.53906 100.78907,38.13281c4.78515,4.25 5.15234,11.51563 0.80859,16.20313c-4.33594,4.69922 -11.73437,5.05078 -16.51953,0.80078c-23.34375,-20.75391 -53.55859,-32.18359 -85.07813,-32.18359c-69.8789,0 -126.72656,55.76172 -126.72656,124.30859c0,68.54688 56.84766,124.3125 126.72656,124.3125c31.51954,0 61.73829,-11.43359 85.07813,-32.17969c4.78516,-4.2539 12.17969,-3.89843 16.51953,0.79297c4.34375,4.69531 3.97656,11.95313 -0.80859,16.21485c-27.64453,24.58203 -63.44532,38.12109 -100.78907,38.12109"/>
   <path id="svg_3" fill-rule="nonzero" fill="#121212" d="m392.86328,195.20703c0,5.89063 -4.82031,10.6836 -10.73047,10.6836c-5.92968,0 -10.74609,-4.79297 -10.74609,-10.6836c0,-5.89062 4.81641,-10.6875 10.74609,-10.6875c5.91016,0 10.73047,4.79688 10.73047,10.6875m-10.73047,-23.97265c-13.28125,0 -24.10156,10.75781 -24.10156,23.97265c0,13.21485 10.82031,23.97266 24.10156,23.97266c13.28516,0 24.09766,-10.75781 24.09766,-23.97266c0,-13.21484 -10.8125,-23.97265 -24.09766,-23.97265"/>
  </g>
 </g>
</svg>